<svg width="430" height="430" viewBox="0 0 430 430" fill="none" xmlns="http://www.w3.org/2000/svg">
<circle cx="216" cy="215" r="112.5" stroke="#175785" stroke-width="15"/>
<path d="M268.5 215C268.5 247.225 261.953 276.029 251.718 296.499C241.259 317.417 228.197 327.5 216 327.5C203.803 327.5 190.741 317.417 180.282 296.499C170.047 276.029 163.5 247.225 163.5 215C163.5 182.775 170.047 153.971 180.282 133.501C190.741 112.583 203.803 102.5 216 102.5C228.197 102.5 241.259 112.583 251.718 133.501C261.953 153.971 268.5 182.775 268.5 215Z" stroke="#175785" stroke-width="15"/>
<path d="M104.5 213.956H328.5M216.011 327V213.956V103" stroke="#175785" stroke-width="15" stroke-linecap="round"/>
<line x1="312" y1="162.5" x2="117" y2="162.5" stroke="#175785" stroke-width="15"/>
<line x1="117" y1="267.5" x2="312" y2="267.5" stroke="#175785" stroke-width="15"/>
<path fill-rule="evenodd" clip-rule="evenodd" d="M193.5 71.7352C124.104 82.5464 71 142.572 71 215C71 217.178 71.048 219.345 71.1431 221.5H71.166H71.2024H71.2072H71.2391H71.2761H71.2868H71.3134H71.351H71.3664H71.3888H71.4269H71.446H71.4653H71.504H71.5256H71.5429H71.5821H71.6052H71.6215H71.6612H71.6848H71.7012H71.7415H71.7644H71.782H71.8227H71.844H71.8637H71.905H71.9236H71.9465H71.9883H72.0032H72.0303H72.0726H72.0828H72.1151H72.1578H72.1624H72.2008H72.242H72.2441H72.2875H72.3216H72.3312H72.3752H72.4012H72.4194H72.4638H72.4807H72.5084H72.5533H72.5603H72.5984H72.6399H72.6437H72.6893H72.7195H72.735H72.781H72.7991H72.8272H72.8737H72.8787H72.9203H72.9583H72.9672H73.0142H73.0379H73.0615H73.109H73.1175H73.1567H73.1971H73.2046H73.2527H73.2767H73.301H73.3495H73.3563H73.3982H73.4359H73.4471H73.4962H73.5155H73.5455H73.595H73.5951H73.6447H73.6747H73.6945H73.7446H73.7543H73.7948H73.8339H73.8452H73.8958H73.9135H73.9466H73.9931H73.9976H74.0487H74.0727H74.1H74.1515H74.1523H74.2032H74.2319H74.255H74.307H74.3114H74.3592H74.391H74.4115H74.464H74.4706H74.5167H74.5502H74.5695H74.6225H74.6298H74.6756H74.7094H74.7289H74.7823H74.789H74.8359H74.8686H74.8897H74.9436H74.9482H74.9976H75.0278H75.0518H75.1062H75.1074H75.1606H75.187H75.2153H75.2666H75.27H75.3249H75.3462H75.3799H75.4258H75.4351H75.4904H75.5054H75.5458H75.585H75.6014H75.6571H75.6646H75.7129H75.7442H75.7688H75.8238H75.8249H75.8811H75.9034H75.9374H75.983H75.9938H76.0503H76.0626H76.1069H76.1422H76.1637H76.2206H76.2217H76.2775H76.3013H76.3346H76.3809H76.3918H76.4491H76.4605H76.5065H76.5401H76.564H76.6197H76.6216H76.6793H76.6993H76.7371H76.7789H76.795H76.8529H76.8585H76.911H76.9381H76.9692H77.0177H77.0274H77.0857H77.0973H77.1441H77.1769H77.2026H77.2565H77.2612H77.3199H77.3361H77.3786H77.4157H77.4374H77.4953H77.4963H77.5553H77.5749H77.6143H77.6545H77.6734H77.7325H77.7341H77.7918H77.8137H77.8511H77.8933H77.9104H77.9698H77.9729H78.0293H78.0525H78.0889H78.132H78.1484H78.2081H78.2116H78.2678H78.2912H78.3275H78.3708H78.3873H78.4472H78.4504H78.5071H78.53H78.567H78.6096H78.627H78.687H78.6892H78.7471H78.7688H78.8072H78.8484H78.8673H78.9275H78.928H78.9877H79.0076H79.0479H79.0872H79.1082H79.1668H79.1684H79.2288H79.2464H79.2891H79.326H79.3495H79.4056H79.4098H79.4702H79.4852H79.5307H79.5648H79.5911H79.6444H79.6515H79.712H79.724H79.7725H79.8036H79.833H79.8832H79.8934H79.9539H79.9627H80.0144H80.0423H80.0749H80.1219H80.1355H80.196H80.2015H80.2565H80.2811H80.317H80.3607H80.3774H80.4379H80.4403H80.4984H80.5199H80.5589H80.5995H80.6193H80.6791H80.6798H80.7402H80.7587H80.8006H80.8383H80.861H80.9179H80.9214H80.9817H80.9975H81.042H81.0771H81.1023H81.1567H81.1626H81.2228H81.2363H81.283H81.3159H81.3432H81.3955H81.4034H81.4635H81.4751H81.5235H81.5547H81.5836H81.6343H81.6436H81.7035H81.7139H81.7634H81.7934H81.8233H81.873H81.8831H81.9429H81.9526H82.0026H82.0322H82.0622H82.1118H82.1219H82.1814H82.1914H82.2409H82.271H82.3003H82.3506H82.3597H82.419H82.4302H82.4783H82.5098H82.5375H82.5894H82.5966H82.6556H82.669H82.7146H82.7486H82.7735H82.8282H82.8324H82.8911H82.9078H82.9498H82.9874H83.0084H83.0669H83.1254H83.1466H83.1837H83.2262H83.242H83.3002H83.3058H83.3583H83.3854H83.4163H83.465H83.4742H83.532H83.5446H83.5898H83.6242H83.6474H83.7037H83.7049H83.7623H83.7833H83.8197H83.8629H83.8769H83.934H83.9425H83.991H84.0221H84.0479H84.1017H84.1047H84.1614H84.1813H84.218H84.2609H84.2744H84.3308H84.3405H84.387H84.4201H84.4431H84.4991H84.4997H84.5549H84.5793H84.6106H84.6589H84.6662H84.7217H84.7385H84.777H84.8181H84.8322H84.8873H84.8977H84.9423H84.9773H84.9971H85.0517H85.0569H85.1063H85.1365H85.1606H85.2149H85.2161H85.269H85.2957H85.3229H85.3753H85.3767H85.4304H85.4549H85.4839H85.5345H85.5372H85.5904H85.614H85.6434H85.6936H85.6963H85.749H85.7732H85.8016H85.8528H85.854H85.9062H85.9324H85.9582H86.0101H86.012H86.0618H86.0916H86.1134H86.1597C86.0536 219.347 86 217.18 86 215C86 150.876 132.427 97.5964 193.5 86.94V86V85.9459V85.8919V85.8378V85.7837V85.7296V85.6755V85.6214V85.5673V85.5132V85.4591V85.405V85.3509V85.2968V85.2426V85.1885V85.1344V85.0802V85.0261V84.9719V84.9178V84.8636V84.8095V84.7553V84.7011V84.6469V84.5928V84.5386V84.4844V84.4302V84.376V84.3218V84.2676V84.2134V84.1591V84.1049V84.0507V83.9965V83.9422V83.888V83.8338V83.7795V83.7253V83.671V83.6167V83.5625V83.5082V83.4539V83.3997V83.3454V83.2911V83.2368V83.1825V83.1282V83.0739V83.0196V82.9653V82.911V82.8567V82.8024V82.748V82.6937V82.6394V82.5851V82.5307V82.4764V82.422V82.3677V82.3133V82.259V82.2046V82.1502V82.0959V82.0415V81.9871V81.9327V81.8783V81.8239V81.7696V81.7152V81.6608V81.6064V81.5519V81.4975V81.4431V81.3887V81.3343V81.2799V81.2254V81.171V81.1166V81.0621V81.0077V80.9532V80.8988V80.8443V80.7899V80.7354V80.6809V80.6265V80.572V80.5175V80.463V80.4086V80.3541V80.2996V80.2451V80.1906V80.1361V80.0816V80.0271V79.9726V79.9181V79.8636V79.809V79.7545V79.7V79.6455V79.5909V79.5364V79.4819V79.4273V79.3728V79.3182V79.2637V79.2091V79.1546V79.1V79.0455V78.9909V78.9363V78.8818V78.8272V78.7726V78.718V78.6635V78.6089V78.5543V78.4997V78.4451V78.3905V78.3359V78.2813V78.2267V78.1721V78.1175V78.0629V78.0082V77.9536V77.899V77.8444V77.7898V77.7351V77.6805V77.6259V77.5712V77.5166V77.4619V77.4073V77.3526V77.298V77.2433V77.1887V77.134V77.0794V77.0247V76.97V76.9154V76.8607V76.806V76.7513V76.6967V76.642V76.5873V76.5326V76.4779V76.4232V76.3685V76.3138V76.2591V76.2044V76.1497V76.095V76.0403V75.9856V75.9309V75.8762V75.8215V75.7668V75.712V75.6573V75.6026V75.5479V75.4931V75.4384V75.3837V75.3289V75.2742V75.2195V75.1647V75.11V75.0552V75.0005V74.9457V74.891V74.8362V74.7815V74.7267V74.672V74.6172V74.5624V74.5077V74.4529V74.3981V74.3434V74.2886V74.2338V74.179V74.1243V74.0695V74.0147V73.9599V73.9051V73.8503V73.7955V73.7408V73.686V73.6312V73.5764V73.5216V73.4668V73.412V73.3572V73.3024V73.2476V73.1928V73.138V73.0831V73.0283V72.9735V72.9187V72.8639V72.8091V72.7543V72.6994V72.6446V72.5898V72.535V72.4801V72.4253V72.3705V72.3157V72.2608V72.206V72.1512V72.0963V72.0415V71.9866V71.9318V71.877V71.8221V71.7673V71.7352ZM208.5 85.2127V85.1885V85.1344V85.0802V85.0261V84.9719V84.9178V84.8636V84.8095V84.7553V84.7011V84.6469V84.5928V84.5386V84.4844V84.4302V84.376V84.3218V84.2676V84.2134V84.1591V84.1049V84.0507V83.9965V83.9422V83.888V83.8338V83.7795V83.7253V83.671V83.6167V83.5625V83.5082V83.4539V83.3997V83.3454V83.2911V83.2368V83.1825V83.1282V83.0739V83.0196V82.9653V82.911V82.8567V82.8024V82.748V82.6937V82.6394V82.5851V82.5307V82.4764V82.422V82.3677V82.3133V82.259V82.2046V82.1502V82.0959V82.0415V81.9871V81.9327V81.8783V81.8239V81.7696V81.7152V81.6608V81.6064V81.5519V81.4975V81.4431V81.3887V81.3343V81.2799V81.2254V81.171V81.1166V81.0621V81.0077V80.9532V80.8988V80.8443V80.7899V80.7354V80.6809V80.6265V80.572V80.5175V80.463V80.4086V80.3541V80.2996V80.2451V80.1906V80.1361V80.0816V80.0271V79.9726V79.9181V79.8636V79.809V79.7545V79.7V79.6455V79.5909V79.5364V79.4819V79.4273V79.3728V79.3182V79.2637V79.2091V79.1546V79.1V79.0455V78.9909V78.9363V78.8818V78.8272V78.7726V78.718V78.6635V78.6089V78.5543V78.4997V78.4451V78.3905V78.3359V78.2813V78.2267V78.1721V78.1175V78.0629V78.0082V77.9536V77.899V77.8444V77.7898V77.7351V77.6805V77.6259V77.5712V77.5166V77.4619V77.4073V77.3526V77.298V77.2433V77.1887V77.134V77.0794V77.0247V76.97V76.9154V76.8607V76.806V76.7513V76.6967V76.642V76.5873V76.5326V76.4779V76.4232V76.3685V76.3138V76.2591V76.2044V76.1497V76.095V76.0403V75.9856V75.9309V75.8762V75.8215V75.7668V75.712V75.6573V75.6026V75.5479V75.4931V75.4384V75.3837V75.3289V75.2742V75.2195V75.1647V75.11V75.0552V75.0005V74.9457V74.891V74.8362V74.7815V74.7267V74.672V74.6172V74.5624V74.5077V74.4529V74.3981V74.3434V74.2886V74.2338V74.179V74.1243V74.0695V74.0147V73.9599V73.9051V73.8503V73.7955V73.7408V73.686V73.6312V73.5764V73.5216V73.4668V73.412V73.3572V73.3024V73.2476V73.1928V73.138V73.0831V73.0283V72.9735V72.9187V72.8639V72.8091V72.7543V72.6994V72.6446V72.5898V72.535V72.4801V72.4253V72.3705V72.3157V72.2608V72.206V72.1512V72.0963V72.0415V71.9866V71.9318V71.877V71.8221V71.7673V71.7124V71.6576V71.6028V71.5479V71.4931V71.4382V71.3834V71.3285V71.2737V71.2188V71.1639V71.1091V71.0542V70.9994V70.9445V70.8897V70.8348V70.7799V70.7251V70.6702V70.6153V70.5605V70.5056V70.4507V70.3959V70.341V70.2861V70.2313V70.1906C210.984 70.0641 213.485 70 216 70C288.08 70 347.876 122.594 359.105 191.5H345H343.881C332.821 130.921 279.773 85 216 85C213.483 85 210.982 85.0716 208.5 85.2127ZM345.727 206.5H360.755C360.918 209.313 361 212.147 361 215C361 287.428 307.896 347.454 238.5 358.265V358.251V358.186V358.121V358.056V357.991V357.926V357.861V357.796V357.731V357.666V357.601V357.536V357.471V357.406V357.34V357.275V357.21V357.145V357.08V357.015V356.95V356.885V356.82V356.755V356.69V356.625V356.56V356.495V356.43V356.365V356.3V356.235V356.17V356.105V356.04V355.975V355.91V355.845V355.78V355.715V355.65V355.585V355.52V355.454V355.389V355.324V355.259V355.194V355.129V355.064V354.999V354.934V354.869V354.804V354.739V354.674V354.609V354.544V354.479V354.414V354.349V354.284V354.219V354.154V354.089V354.024V353.959V353.894V353.829V353.764V353.699V353.634V353.568V353.503V353.438V353.373V353.308V353.243V353.178V353.113V353.048V352.983V352.918V352.853V352.788V352.723V352.658V352.593V352.528V352.463V352.398V352.333V352.268V352.203V352.138V352.073V352.008V351.943V351.878V351.813V351.747V351.682V351.617V351.552V351.487V351.422V351.357V351.292V351.227V351.162V351.097V351.032V350.967V350.902V350.837V350.772V350.707V350.642V350.577V350.512V350.447V350.382V350.317V350.252V350.187V350.122V350.057V349.992V349.927V349.862V349.796V349.731V349.666V349.601V349.536V349.471V349.406V349.341V349.276V349.211V349.146V349.081V349.016V348.951V348.886V348.821V348.756V348.691V348.626V348.561V348.496V348.431V348.366V348.301V348.236V348.171V348.106V348.041V347.976V347.91V347.845V347.78V347.715V347.65V347.585V347.52V347.455V347.39V347.325V347.26V347.195V347.13V347.065V347V343.06C299.573 332.404 346 279.124 346 215C346 212.144 345.908 209.31 345.727 206.5ZM223.5 344.787C221.018 344.928 218.517 345 216 345C151.527 345 98.0159 298.066 87.7696 236.5H87.7631H87.7519H87.7072H87.6835H87.6623H87.6171H87.6039H87.5717H87.5261H87.5243H87.4802H87.4447H87.4342H87.3879H87.3652H87.3414H87.2947H87.2856H87.2477H87.206H87.2006H87.1533H87.1264H87.1057H87.0579H87.0468H87.01H86.9672H86.9618H86.9134H86.8876H86.8649H86.8161H86.808H86.7671H86.7284H86.7179H86.6686H86.6488H86.619H86.5693H86.5692H86.5194H86.4896H86.4693H86.419H86.41H86.3685H86.3304H86.3178H86.267H86.2508H86.216H86.1712H86.1648H86.1134H86.0916H86.0618H86.012H86.0101H85.9582H85.9324H85.9062H85.854H85.8528H85.8016H85.7732H85.749H85.6963H85.6936H85.6434H85.614H85.5904H85.5372H85.5345H85.4839H85.4549H85.4304H85.3767H85.3753H85.3229H85.2957H85.269H85.2161H85.2149H85.1606H85.1365H85.1063H85.0569H85.0517H84.9971H84.9773H84.9423H84.8977H84.8873H84.8322H84.8181H84.777H84.7385H84.7217H84.6662H84.6589H84.6106H84.5793H84.5549H84.4997H84.4991H84.4431H84.4201H84.387H84.3405H84.3308H84.2744H84.2609H84.218H84.1813H84.1614H84.1047H84.1017H84.0479H84.0221H83.991H83.9425H83.934H83.8769H83.8629H83.8197H83.7833H83.7623H83.7049H83.7037H83.6474H83.6242H83.5898H83.5446H83.532H83.4742H83.465H83.4163H83.3854H83.3583H83.3058H83.3002H83.242H83.2262H83.1837H83.1466H83.1254H83.067H83.0084H82.9874H82.9498H82.9078H82.8911H82.8324H82.8282H82.7735H82.7486H82.7146H82.669H82.6556H82.5966H82.5894H82.5375H82.5098H82.4783H82.4302H82.419H82.3597H82.3506H82.3003H82.271H82.2409H82.1914H82.1814H82.1219H82.1118H82.0622H82.0322H82.0026H81.9526H81.9429H81.8831H81.873H81.8233H81.7934H81.7634H81.7139H81.7035H81.6436H81.6343H81.5836H81.5547H81.5235H81.4751H81.4635H81.4034H81.3955H81.3432H81.3159H81.283H81.2363H81.2228H81.1626H81.1567H81.1023H81.0771H81.042H80.9975H80.9817H80.9214H80.9179H80.861H80.8383H80.8006H80.7587H80.7402H80.6798H80.6791H80.6193H80.5995H80.5589H80.5199H80.4984H80.4403H80.4379H80.3774H80.3607H80.317H80.2811H80.2565H80.2015H80.196H80.1355H80.1219H80.0749H80.0423H80.0144H79.9627H79.9539H79.8934H79.8832H79.833H79.8036H79.7725H79.724H79.712H79.6515H79.6444H79.5911H79.5648H79.5307H79.4852H79.4702H79.4098H79.4056H79.3495H79.326H79.2891H79.2464H79.2288H79.1684H79.1668H79.1082H79.0872H79.0479H79.0076H78.9877H78.928H78.9275H78.8673H78.8484H78.8072H78.7688H78.7471H78.6892H78.687H78.627H78.6096H78.567H78.53H78.5071H78.4504H78.4472H78.3873H78.3708H78.3275H78.2912H78.2678H78.2116H78.2081H78.1484H78.132H78.0889H78.0525H78.0293H77.9729H77.9698H77.9104H77.8933H77.8511H77.8137H77.7918H77.7341H77.7325H77.6734H77.6545H77.6143H77.5749H77.5553H77.4963H77.4953H77.4374H77.4157H77.3786H77.3361H77.3199H77.2612H77.2565H77.2026H77.1769H77.1441H77.0973H77.0857H77.0274H77.0177H76.9692H76.9381H76.911H76.8585H76.8529H76.795H76.7789H76.7371H76.6993H76.6793H76.6216H76.6197H76.564H76.5401H76.5065H76.4605H76.4491H76.3918H76.3809H76.3346H76.3013H76.2775H76.2217H76.2206H76.1637H76.1422H76.1069H76.0626H76.0503H75.9938H75.983H75.9374H75.9034H75.8811H75.8249H75.8238H75.7688H75.7442H75.7129H75.6646H75.6571H75.6014H75.585H75.5458H75.5054H75.4904H75.4351H75.4258H75.3799H75.3462H75.3249H75.27H75.2666H75.2153H75.187H75.1606H75.1074H75.1062H75.0518H75.0278H74.9976H74.9482H74.9436H74.8897H74.8686H74.8359H74.789H74.7823H74.7289H74.7094H74.6756H74.6298H74.6225H74.5695H74.5502H74.5167H74.4706H74.464H74.4115H74.391H74.3592H74.3114H74.307H74.255H74.2319H74.2032H74.1523H74.1515H74.1H74.0727H74.0487H73.9976H73.9931H73.9466H73.9135H73.8958H73.8452H73.8339H73.7948H73.7543H73.7446H73.6945H73.6747H73.6447H73.5951H73.595H73.5455H73.5155H73.4962H73.4471H73.4359H73.3982H73.3563H73.3495H73.301H73.2767H73.2527H73.2046H73.1971H73.1567H73.1175H73.109H73.0615H73.0379H73.0142H72.9672H72.9583H72.9203H72.8787H72.8737H72.8272H72.7991H72.781H72.735H72.7195H72.6893H72.6437H72.6399H72.5984H72.583C82.9706 306.385 143.224 360 216 360C218.515 360 221.016 359.936 223.5 359.809V359.747V359.682V359.617V359.552V359.487V359.422V359.357V359.292V359.226V359.161V359.096V359.031V358.966V358.901V358.836V358.771V358.706V358.641V358.576V358.511V358.446V358.381V358.316V358.251V358.186V358.121V358.056V357.991V357.926V357.861V357.796V357.731V357.666V357.601V357.536V357.471V357.406V357.34V357.275V357.21V357.145V357.08V357.015V356.95V356.885V356.82V356.755V356.69V356.625V356.56V356.495V356.43V356.365V356.3V356.235V356.17V356.105V356.04V355.975V355.91V355.845V355.78V355.715V355.65V355.585V355.52V355.454V355.389V355.324V355.259V355.194V355.129V355.064V354.999V354.934V354.869V354.804V354.739V354.674V354.609V354.544V354.479V354.414V354.349V354.284V354.219V354.154V354.089V354.024V353.959V353.894V353.829V353.764V353.699V353.634V353.568V353.503V353.438V353.373V353.308V353.243V353.178V353.113V353.048V352.983V352.918V352.853V352.788V352.723V352.658V352.593V352.528V352.463V352.398V352.333V352.268V352.203V352.138V352.073V352.008V351.943V351.878V351.813V351.747V351.682V351.617V351.552V351.487V351.422V351.357V351.292V351.227V351.162V351.097V351.032V350.967V350.902V350.837V350.772V350.707V350.642V350.577V350.512V350.447V350.382V350.317V350.252V350.187V350.122V350.057V349.992V349.927V349.862V349.796V349.731V349.666V349.601V349.536V349.471V349.406V349.341V349.276V349.211V349.146V349.081V349.016V348.951V348.886V348.821V348.756V348.691V348.626V348.561V348.496V348.431V348.366V348.301V348.236V348.171V348.106V348.041V347.976V347.91V347.845V347.78V347.715V347.65V347.585V347.52V347.455V347.39V347.325V347.26V347.195V347.13V347.065V347V344.787Z" fill="#299CDD"/>
<path d="M354 214C374 214 394 214 414 214" stroke="#299CDD" stroke-width="15" stroke-linecap="round" stroke-linejoin="round"/>
<path d="M17 214C37 214 57 214 77 214" stroke="#299CDD" stroke-width="15" stroke-linecap="round" stroke-linejoin="round"/>
<path d="M216 17C216 37 216 57 216 77" stroke="#299CDD" stroke-width="15" stroke-linecap="round" stroke-linejoin="round"/>
<path d="M216 354C216 374 216 394 216 414" stroke="#299CDD" stroke-width="15" stroke-linecap="round" stroke-linejoin="round"/>
<circle cx="216" cy="414" r="15" fill="#299CDD"/>
<circle cx="414" cy="214" r="15" fill="#299CDD"/>
<circle cx="17" cy="214" r="15" fill="#299CDD"/>
<circle cx="216" cy="17" r="15" fill="#299CDD"/>
</svg>
