<svg width="500" height="500" viewBox="0 0 500 500" fill="none" xmlns="http://www.w3.org/2000/svg">
<circle cx="251" cy="249" r="112.5" stroke="#BFBFBF" stroke-width="15"/>
<path d="M303.5 249C303.5 281.225 296.953 310.029 286.718 330.499C276.259 351.417 263.197 361.5 251 361.5C238.803 361.5 225.741 351.417 215.282 330.499C205.047 310.029 198.5 281.225 198.5 249C198.5 216.775 205.047 187.971 215.282 167.501C225.741 146.583 238.803 136.5 251 136.5C263.197 136.5 276.259 146.583 286.718 167.501C296.953 187.971 303.5 216.775 303.5 249Z" stroke="#BFBFBF" stroke-width="15"/>
<path d="M139.5 247.956H363.5M251.011 361V247.956V137" stroke="#BFBFBF" stroke-width="15" stroke-linecap="round"/>
<line x1="347" y1="196.5" x2="152" y2="196.5" stroke="#BFBFBF" stroke-width="15"/>
<line x1="152" y1="301.5" x2="347" y2="301.5" stroke="#BFBFBF" stroke-width="15"/>
<path fill-rule="evenodd" clip-rule="evenodd" d="M228.5 105.735C159.104 116.546 106 176.572 106 249C106 251.178 106.048 253.345 106.143 255.5H106.166H106.202H106.207H106.239H106.276H106.287H106.313H106.351H106.366H106.389H106.427H106.446H106.465H106.504H106.526H106.543H106.582H106.605H106.622H106.661H106.685H106.701H106.741H106.764H106.782H106.823H106.844H106.864H106.905H106.924H106.947H106.988H107.003H107.03H107.073H107.083H107.115H107.158H107.162H107.201H107.242H107.244H107.288H107.322H107.331H107.375H107.401H107.419H107.464H107.481H107.508H107.553H107.56H107.598H107.64H107.644H107.689H107.72H107.735H107.781H107.799H107.827H107.874H107.879H107.92H107.958H107.967H108.014H108.038H108.062H108.109H108.118H108.157H108.197H108.205H108.253H108.277H108.301H108.35H108.356H108.398H108.436H108.447H108.496H108.515H108.545H108.595H108.595H108.645H108.675H108.695H108.745H108.754H108.795H108.834H108.845H108.896H108.913H108.947H108.993H108.998H109.049H109.073H109.1H109.152H109.152H109.203H109.232H109.255H109.307H109.311H109.359H109.391H109.412H109.464H109.471H109.517H109.55H109.569H109.622H109.63H109.676H109.709H109.729H109.782H109.789H109.836H109.869H109.89H109.944H109.948H109.998H110.028H110.052H110.106H110.107H110.161H110.187H110.215H110.267H110.27H110.325H110.346H110.38H110.426H110.435H110.49H110.505H110.546H110.585H110.601H110.657H110.665H110.713H110.744H110.769H110.824H110.825H110.881H110.903H110.937H110.983H110.994H111.05H111.063H111.107H111.142H111.164H111.221H111.222H111.278H111.301H111.335H111.381H111.392H111.449H111.461H111.507H111.54H111.564H111.62H111.622H111.679H111.699H111.737H111.779H111.795H111.853H111.859H111.911H111.938H111.969H112.018H112.027H112.086H112.097H112.144H112.177H112.203H112.256H112.261H112.32H112.336H112.379H112.416H112.437H112.495H112.496H112.555H112.575H112.614H112.654H112.673H112.733H112.734H112.792H112.814H112.851H112.893H112.91H112.97H112.973H113.029H113.052H113.089H113.132H113.148H113.208H113.212H113.268H113.291H113.328H113.371H113.387H113.447H113.45H113.507H113.53H113.567H113.61H113.627H113.687H113.689H113.747H113.769H113.807H113.848H113.867H113.927H113.928H113.988H114.008H114.048H114.087H114.108H114.167H114.168H114.229H114.246H114.289H114.326H114.349H114.406H114.41H114.47H114.485H114.531H114.565H114.591H114.644H114.652H114.712H114.724H114.772H114.804H114.833H114.883H114.893H114.954H114.963H115.014H115.042H115.075H115.122H115.135H115.196H115.202H115.256H115.281H115.317H115.361H115.377H115.438H115.44H115.498H115.52H115.559H115.6H115.619H115.679H115.68H115.74H115.759H115.801H115.838H115.861H115.918H115.921H115.982H115.997H116.042H116.077H116.102H116.157H116.163H116.223H116.236H116.283H116.316H116.343H116.395H116.403H116.463H116.475H116.524H116.555H116.584H116.634H116.644H116.704H116.714H116.763H116.793H116.823H116.873H116.883H116.943H116.953H117.003H117.032H117.062H117.112H117.122H117.181H117.191H117.241H117.271H117.3H117.351H117.36H117.419H117.43H117.478H117.51H117.537H117.589H117.597H117.656H117.669H117.715H117.749H117.774H117.828H117.832H117.891H117.908H117.95H117.987H118.008H118.067H118.125H118.147H118.184H118.226H118.242H118.3H118.306H118.358H118.385H118.416H118.465H118.474H118.532H118.545H118.59H118.624H118.647H118.704H118.705H118.762H118.783H118.82H118.863H118.877H118.934H118.943H118.991H119.022H119.048H119.102H119.105H119.161H119.181H119.218H119.261H119.274H119.331H119.341H119.387H119.42H119.443H119.499H119.5H119.555H119.579H119.611H119.659H119.666H119.722H119.738H119.777H119.818H119.832H119.887H119.898H119.942H119.977H119.997H120.052H120.057H120.106H120.136H120.161H120.215H120.216H120.269H120.296H120.323H120.375H120.377H120.43H120.455H120.484H120.534H120.537H120.59H120.614H120.643H120.694H120.696H120.749H120.773H120.802H120.853H120.854H120.906H120.932H120.958H121.01H121.012H121.062H121.092H121.113H121.16C121.054 253.347 121 251.18 121 249C121 184.876 167.427 131.596 228.5 120.94V120V119.946V119.892V119.838V119.784V119.73V119.676V119.621V119.567V119.513V119.459V119.405V119.351V119.297V119.243V119.189V119.134V119.08V119.026V118.972V118.918V118.864V118.809V118.755V118.701V118.647V118.593V118.539V118.484V118.43V118.376V118.322V118.268V118.213V118.159V118.105V118.051V117.996V117.942V117.888V117.834V117.78V117.725V117.671V117.617V117.562V117.508V117.454V117.4V117.345V117.291V117.237V117.183V117.128V117.074V117.02V116.965V116.911V116.857V116.802V116.748V116.694V116.639V116.585V116.531V116.476V116.422V116.368V116.313V116.259V116.205V116.15V116.096V116.041V115.987V115.933V115.878V115.824V115.77V115.715V115.661V115.606V115.552V115.498V115.443V115.389V115.334V115.28V115.225V115.171V115.117V115.062V115.008V114.953V114.899V114.844V114.79V114.735V114.681V114.626V114.572V114.518V114.463V114.409V114.354V114.3V114.245V114.191V114.136V114.082V114.027V113.973V113.918V113.864V113.809V113.755V113.7V113.645V113.591V113.536V113.482V113.427V113.373V113.318V113.264V113.209V113.155V113.1V113.045V112.991V112.936V112.882V112.827V112.773V112.718V112.663V112.609V112.554V112.5V112.445V112.391V112.336V112.281V112.227V112.172V112.117V112.063V112.008V111.954V111.899V111.844V111.79V111.735V111.68V111.626V111.571V111.517V111.462V111.407V111.353V111.298V111.243V111.189V111.134V111.079V111.025V110.97V110.915V110.861V110.806V110.751V110.697V110.642V110.587V110.533V110.478V110.423V110.369V110.314V110.259V110.204V110.15V110.095V110.04V109.986V109.931V109.876V109.821V109.767V109.712V109.657V109.603V109.548V109.493V109.438V109.384V109.329V109.274V109.219V109.165V109.11V109.055V109V108.946V108.891V108.836V108.781V108.727V108.672V108.617V108.562V108.508V108.453V108.398V108.343V108.289V108.234V108.179V108.124V108.069V108.015V107.96V107.905V107.85V107.796V107.741V107.686V107.631V107.576V107.522V107.467V107.412V107.357V107.302V107.248V107.193V107.138V107.083V107.028V106.974V106.919V106.864V106.809V106.754V106.699V106.645V106.59V106.535V106.48V106.425V106.37V106.316V106.261V106.206V106.151V106.096V106.041V105.987V105.932V105.877V105.822V105.767V105.735ZM243.5 119.213V119.189V119.134V119.08V119.026V118.972V118.918V118.864V118.809V118.755V118.701V118.647V118.593V118.539V118.484V118.43V118.376V118.322V118.268V118.213V118.159V118.105V118.051V117.996V117.942V117.888V117.834V117.78V117.725V117.671V117.617V117.562V117.508V117.454V117.4V117.345V117.291V117.237V117.183V117.128V117.074V117.02V116.965V116.911V116.857V116.802V116.748V116.694V116.639V116.585V116.531V116.476V116.422V116.368V116.313V116.259V116.205V116.15V116.096V116.041V115.987V115.933V115.878V115.824V115.77V115.715V115.661V115.606V115.552V115.498V115.443V115.389V115.334V115.28V115.225V115.171V115.117V115.062V115.008V114.953V114.899V114.844V114.79V114.735V114.681V114.626V114.572V114.518V114.463V114.409V114.354V114.3V114.245V114.191V114.136V114.082V114.027V113.973V113.918V113.864V113.809V113.755V113.7V113.645V113.591V113.536V113.482V113.427V113.373V113.318V113.264V113.209V113.155V113.1V113.045V112.991V112.936V112.882V112.827V112.773V112.718V112.663V112.609V112.554V112.5V112.445V112.391V112.336V112.281V112.227V112.172V112.117V112.063V112.008V111.954V111.899V111.844V111.79V111.735V111.68V111.626V111.571V111.517V111.462V111.407V111.353V111.298V111.243V111.189V111.134V111.079V111.025V110.97V110.915V110.861V110.806V110.751V110.697V110.642V110.587V110.533V110.478V110.423V110.369V110.314V110.259V110.204V110.15V110.095V110.04V109.986V109.931V109.876V109.821V109.767V109.712V109.657V109.603V109.548V109.493V109.438V109.384V109.329V109.274V109.219V109.165V109.11V109.055V109V108.946V108.891V108.836V108.781V108.727V108.672V108.617V108.562V108.508V108.453V108.398V108.343V108.289V108.234V108.179V108.124V108.069V108.015V107.96V107.905V107.85V107.796V107.741V107.686V107.631V107.576V107.522V107.467V107.412V107.357V107.302V107.248V107.193V107.138V107.083V107.028V106.974V106.919V106.864V106.809V106.754V106.699V106.645V106.59V106.535V106.48V106.425V106.37V106.316V106.261V106.206V106.151V106.096V106.041V105.987V105.932V105.877V105.822V105.767V105.712V105.658V105.603V105.548V105.493V105.438V105.383V105.329V105.274V105.219V105.164V105.109V105.054V104.999V104.945V104.89V104.835V104.78V104.725V104.67V104.615V104.56V104.506V104.451V104.396V104.341V104.286V104.231V104.191C245.984 104.064 248.485 104 251 104C323.08 104 382.876 156.594 394.105 225.5H380H378.881C367.821 164.921 314.773 119 251 119C248.483 119 245.982 119.072 243.5 119.213ZM380.727 240.5H395.755C395.918 243.313 396 246.147 396 249C396 321.428 342.896 381.454 273.5 392.265V392.251V392.186V392.121V392.056V391.991V391.926V391.861V391.796V391.731V391.666V391.601V391.536V391.471V391.406V391.34V391.275V391.21V391.145V391.08V391.015V390.95V390.885V390.82V390.755V390.69V390.625V390.56V390.495V390.43V390.365V390.3V390.235V390.17V390.105V390.04V389.975V389.91V389.845V389.78V389.715V389.65V389.585V389.52V389.454V389.389V389.324V389.259V389.194V389.129V389.064V388.999V388.934V388.869V388.804V388.739V388.674V388.609V388.544V388.479V388.414V388.349V388.284V388.219V388.154V388.089V388.024V387.959V387.894V387.829V387.764V387.699V387.634V387.568V387.503V387.438V387.373V387.308V387.243V387.178V387.113V387.048V386.983V386.918V386.853V386.788V386.723V386.658V386.593V386.528V386.463V386.398V386.333V386.268V386.203V386.138V386.073V386.008V385.943V385.878V385.813V385.747V385.682V385.617V385.552V385.487V385.422V385.357V385.292V385.227V385.162V385.097V385.032V384.967V384.902V384.837V384.772V384.707V384.642V384.577V384.512V384.447V384.382V384.317V384.252V384.187V384.122V384.057V383.992V383.927V383.862V383.796V383.731V383.666V383.601V383.536V383.471V383.406V383.341V383.276V383.211V383.146V383.081V383.016V382.951V382.886V382.821V382.756V382.691V382.626V382.561V382.496V382.431V382.366V382.301V382.236V382.171V382.106V382.041V381.976V381.91V381.845V381.78V381.715V381.65V381.585V381.52V381.455V381.39V381.325V381.26V381.195V381.13V381.065V381V377.06C334.573 366.404 381 313.124 381 249C381 246.144 380.908 243.31 380.727 240.5ZM258.5 378.787C256.018 378.928 253.517 379 251 379C186.527 379 133.016 332.066 122.77 270.5H122.763H122.752H122.707H122.684H122.662H122.617H122.604H122.572H122.526H122.524H122.48H122.445H122.434H122.388H122.365H122.341H122.295H122.286H122.248H122.206H122.201H122.153H122.126H122.106H122.058H122.047H122.01H121.967H121.962H121.913H121.888H121.865H121.816H121.808H121.767H121.728H121.718H121.669H121.649H121.619H121.569H121.569H121.519H121.49H121.469H121.419H121.41H121.368H121.33H121.318H121.267H121.251H121.216H121.171H121.165H121.113H121.092H121.062H121.012H121.01H120.958H120.932H120.906H120.854H120.853H120.802H120.773H120.749H120.696H120.694H120.643H120.614H120.59H120.537H120.534H120.484H120.455H120.43H120.377H120.375H120.323H120.296H120.269H120.216H120.215H120.161H120.136H120.106H120.057H120.052H119.997H119.977H119.942H119.898H119.887H119.832H119.818H119.777H119.738H119.722H119.666H119.659H119.611H119.579H119.555H119.5H119.499H119.443H119.42H119.387H119.341H119.331H119.274H119.261H119.218H119.181H119.161H119.105H119.102H119.048H119.022H118.991H118.943H118.934H118.877H118.863H118.82H118.783H118.762H118.705H118.704H118.647H118.624H118.59H118.545H118.532H118.474H118.465H118.416H118.385H118.358H118.306H118.3H118.242H118.226H118.184H118.147H118.125H118.067H118.008H117.987H117.95H117.908H117.891H117.832H117.828H117.774H117.749H117.715H117.669H117.656H117.597H117.589H117.537H117.51H117.478H117.43H117.419H117.36H117.351H117.3H117.271H117.241H117.191H117.181H117.122H117.112H117.062H117.032H117.003H116.953H116.943H116.883H116.873H116.823H116.793H116.763H116.714H116.704H116.644H116.634H116.584H116.555H116.524H116.475H116.463H116.403H116.395H116.343H116.316H116.283H116.236H116.223H116.163H116.157H116.102H116.077H116.042H115.997H115.982H115.921H115.918H115.861H115.838H115.801H115.759H115.74H115.68H115.679H115.619H115.6H115.559H115.52H115.498H115.44H115.438H115.377H115.361H115.317H115.281H115.256H115.202H115.196H115.135H115.122H115.075H115.042H115.014H114.963H114.954H114.893H114.883H114.833H114.804H114.772H114.724H114.712H114.652H114.644H114.591H114.565H114.531H114.485H114.47H114.41H114.406H114.349H114.326H114.289H114.246H114.229H114.168H114.167H114.108H114.087H114.048H114.008H113.988H113.928H113.927H113.867H113.848H113.807H113.769H113.747H113.689H113.687H113.627H113.61H113.567H113.53H113.507H113.45H113.447H113.387H113.371H113.328H113.291H113.268H113.212H113.208H113.148H113.132H113.089H113.052H113.029H112.973H112.97H112.91H112.893H112.851H112.814H112.792H112.734H112.733H112.673H112.654H112.614H112.575H112.555H112.496H112.495H112.437H112.416H112.379H112.336H112.32H112.261H112.256H112.203H112.177H112.144H112.097H112.086H112.027H112.018H111.969H111.938H111.911H111.859H111.853H111.795H111.779H111.737H111.699H111.679H111.622H111.62H111.564H111.54H111.507H111.461H111.449H111.392H111.381H111.335H111.301H111.278H111.222H111.221H111.164H111.142H111.107H111.063H111.05H110.994H110.983H110.937H110.903H110.881H110.825H110.824H110.769H110.744H110.713H110.665H110.657H110.601H110.585H110.546H110.505H110.49H110.435H110.426H110.38H110.346H110.325H110.27H110.267H110.215H110.187H110.161H110.107H110.106H110.052H110.028H109.998H109.948H109.944H109.89H109.869H109.836H109.789H109.782H109.729H109.709H109.676H109.63H109.622H109.569H109.55H109.517H109.471H109.464H109.412H109.391H109.359H109.311H109.307H109.255H109.232H109.203H109.152H109.152H109.1H109.073H109.049H108.998H108.993H108.947H108.913H108.896H108.845H108.834H108.795H108.754H108.745H108.695H108.675H108.645H108.595H108.595H108.545H108.515H108.496H108.447H108.436H108.398H108.356H108.35H108.301H108.277H108.253H108.205H108.197H108.157H108.118H108.109H108.062H108.038H108.014H107.967H107.958H107.92H107.879H107.874H107.827H107.799H107.781H107.735H107.72H107.689H107.644H107.64H107.598H107.583C117.971 340.385 178.224 394 251 394C253.515 394 256.016 393.936 258.5 393.809V393.747V393.682V393.617V393.552V393.487V393.422V393.357V393.292V393.226V393.161V393.096V393.031V392.966V392.901V392.836V392.771V392.706V392.641V392.576V392.511V392.446V392.381V392.316V392.251V392.186V392.121V392.056V391.991V391.926V391.861V391.796V391.731V391.666V391.601V391.536V391.471V391.406V391.34V391.275V391.21V391.145V391.08V391.015V390.95V390.885V390.82V390.755V390.69V390.625V390.56V390.495V390.43V390.365V390.3V390.235V390.17V390.105V390.04V389.975V389.91V389.845V389.78V389.715V389.65V389.585V389.52V389.454V389.389V389.324V389.259V389.194V389.129V389.064V388.999V388.934V388.869V388.804V388.739V388.674V388.609V388.544V388.479V388.414V388.349V388.284V388.219V388.154V388.089V388.024V387.959V387.894V387.829V387.764V387.699V387.634V387.568V387.503V387.438V387.373V387.308V387.243V387.178V387.113V387.048V386.983V386.918V386.853V386.788V386.723V386.658V386.593V386.528V386.463V386.398V386.333V386.268V386.203V386.138V386.073V386.008V385.943V385.878V385.813V385.747V385.682V385.617V385.552V385.487V385.422V385.357V385.292V385.227V385.162V385.097V385.032V384.967V384.902V384.837V384.772V384.707V384.642V384.577V384.512V384.447V384.382V384.317V384.252V384.187V384.122V384.057V383.992V383.927V383.862V383.796V383.731V383.666V383.601V383.536V383.471V383.406V383.341V383.276V383.211V383.146V383.081V383.016V382.951V382.886V382.821V382.756V382.691V382.626V382.561V382.496V382.431V382.366V382.301V382.236V382.171V382.106V382.041V381.976V381.91V381.845V381.78V381.715V381.65V381.585V381.52V381.455V381.39V381.325V381.26V381.195V381.13V381.065V381V378.787Z" fill="#E6E6E6"/>
<path d="M389 248C409 248 429 248 449 248" stroke="#E6E6E6" stroke-width="15" stroke-linecap="round" stroke-linejoin="round"/>
<path d="M52 248C72 248 92 248 112 248" stroke="#E6E6E6" stroke-width="15" stroke-linecap="round" stroke-linejoin="round"/>
<path d="M251 51C251 71 251 91 251 111" stroke="#E6E6E6" stroke-width="15" stroke-linecap="round" stroke-linejoin="round"/>
<path d="M251 388C251 408 251 428 251 448" stroke="#E6E6E6" stroke-width="15" stroke-linecap="round" stroke-linejoin="round"/>
<circle cx="251" cy="448" r="15" fill="#E6E6E6"/>
<circle cx="449" cy="248" r="15" fill="#E6E6E6"/>
<circle cx="52" cy="248" r="15" fill="#E6E6E6"/>
<circle cx="251" cy="51" r="15" fill="#E6E6E6"/>
</svg>
