<svg width="550" height="550" viewBox="0 0 550 550" fill="none" xmlns="http://www.w3.org/2000/svg">
<circle cx="276" cy="275" r="112.5" stroke="#175785" stroke-width="15"/>
<path d="M328.5 275C328.5 307.225 321.953 336.029 311.718 356.499C301.259 377.417 288.197 387.5 276 387.5C263.803 387.5 250.741 377.417 240.282 356.499C230.047 336.029 223.5 307.225 223.5 275C223.5 242.775 230.047 213.971 240.282 193.501C250.741 172.583 263.803 162.5 276 162.5C288.197 162.5 301.259 172.583 311.718 193.501C321.953 213.971 328.5 242.775 328.5 275Z" stroke="#175785" stroke-width="15"/>
<path d="M164.5 273.956H388.5M276.011 387V273.956V163" stroke="#175785" stroke-width="15" stroke-linecap="round"/>
<line x1="372" y1="222.5" x2="177" y2="222.5" stroke="#175785" stroke-width="15"/>
<line x1="177" y1="327.5" x2="372" y2="327.5" stroke="#175785" stroke-width="15"/>
<path fill-rule="evenodd" clip-rule="evenodd" d="M253.5 131.735C184.104 142.546 131 202.572 131 275C131 277.178 131.048 279.345 131.143 281.5H131.166H131.202H131.207H131.239H131.276H131.287H131.313H131.351H131.366H131.389H131.427H131.446H131.465H131.504H131.526H131.543H131.582H131.605H131.622H131.661H131.685H131.701H131.741H131.764H131.782H131.823H131.844H131.864H131.905H131.924H131.947H131.988H132.003H132.03H132.073H132.083H132.115H132.158H132.162H132.201H132.242H132.244H132.288H132.322H132.331H132.375H132.401H132.419H132.464H132.481H132.508H132.553H132.56H132.598H132.64H132.644H132.689H132.72H132.735H132.781H132.799H132.827H132.874H132.879H132.92H132.958H132.967H133.014H133.038H133.062H133.109H133.118H133.157H133.197H133.205H133.253H133.277H133.301H133.35H133.356H133.398H133.436H133.447H133.496H133.515H133.545H133.595H133.595H133.645H133.675H133.695H133.745H133.754H133.795H133.834H133.845H133.896H133.913H133.947H133.993H133.998H134.049H134.073H134.1H134.152H134.152H134.203H134.232H134.255H134.307H134.311H134.359H134.391H134.412H134.464H134.471H134.517H134.55H134.569H134.622H134.63H134.676H134.709H134.729H134.782H134.789H134.836H134.869H134.89H134.944H134.948H134.998H135.028H135.052H135.106H135.107H135.161H135.187H135.215H135.267H135.27H135.325H135.346H135.38H135.426H135.435H135.49H135.505H135.546H135.585H135.601H135.657H135.665H135.713H135.744H135.769H135.824H135.825H135.881H135.903H135.937H135.983H135.994H136.05H136.063H136.107H136.142H136.164H136.221H136.222H136.278H136.301H136.335H136.381H136.392H136.449H136.461H136.507H136.54H136.564H136.62H136.622H136.679H136.699H136.737H136.779H136.795H136.853H136.859H136.911H136.938H136.969H137.018H137.027H137.086H137.097H137.144H137.177H137.203H137.256H137.261H137.32H137.336H137.379H137.416H137.437H137.495H137.496H137.555H137.575H137.614H137.654H137.673H137.733H137.734H137.792H137.814H137.851H137.893H137.91H137.97H137.973H138.029H138.052H138.089H138.132H138.148H138.208H138.212H138.268H138.291H138.328H138.371H138.387H138.447H138.45H138.507H138.53H138.567H138.61H138.627H138.687H138.689H138.747H138.769H138.807H138.848H138.867H138.927H138.928H138.988H139.008H139.048H139.087H139.108H139.167H139.168H139.229H139.246H139.289H139.326H139.349H139.406H139.41H139.47H139.485H139.531H139.565H139.591H139.644H139.652H139.712H139.724H139.772H139.804H139.833H139.883H139.893H139.954H139.963H140.014H140.042H140.075H140.122H140.135H140.196H140.202H140.256H140.281H140.317H140.361H140.377H140.438H140.44H140.498H140.52H140.559H140.6H140.619H140.679H140.68H140.74H140.759H140.801H140.838H140.861H140.918H140.921H140.982H140.997H141.042H141.077H141.102H141.157H141.163H141.223H141.236H141.283H141.316H141.343H141.395H141.403H141.463H141.475H141.524H141.555H141.584H141.634H141.644H141.704H141.714H141.763H141.793H141.823H141.873H141.883H141.943H141.953H142.003H142.032H142.062H142.112H142.122H142.181H142.191H142.241H142.271H142.3H142.351H142.36H142.419H142.43H142.478H142.51H142.537H142.589H142.597H142.656H142.669H142.715H142.749H142.774H142.828H142.832H142.891H142.908H142.95H142.987H143.008H143.067H143.125H143.147H143.184H143.226H143.242H143.3H143.306H143.358H143.385H143.416H143.465H143.474H143.532H143.545H143.59H143.624H143.647H143.704H143.705H143.762H143.783H143.82H143.863H143.877H143.934H143.943H143.991H144.022H144.048H144.102H144.105H144.161H144.181H144.218H144.261H144.274H144.331H144.341H144.387H144.42H144.443H144.499H144.5H144.555H144.579H144.611H144.659H144.666H144.722H144.738H144.777H144.818H144.832H144.887H144.898H144.942H144.977H144.997H145.052H145.057H145.106H145.136H145.161H145.215H145.216H145.269H145.296H145.323H145.375H145.377H145.43H145.455H145.484H145.534H145.537H145.59H145.614H145.643H145.694H145.696H145.749H145.773H145.802H145.853H145.854H145.906H145.932H145.958H146.01H146.012H146.062H146.092H146.113H146.16C146.054 279.347 146 277.18 146 275C146 210.876 192.427 157.596 253.5 146.94V146V145.946V145.892V145.838V145.784V145.73V145.676V145.621V145.567V145.513V145.459V145.405V145.351V145.297V145.243V145.189V145.134V145.08V145.026V144.972V144.918V144.864V144.809V144.755V144.701V144.647V144.593V144.539V144.484V144.43V144.376V144.322V144.268V144.213V144.159V144.105V144.051V143.996V143.942V143.888V143.834V143.78V143.725V143.671V143.617V143.562V143.508V143.454V143.4V143.345V143.291V143.237V143.183V143.128V143.074V143.02V142.965V142.911V142.857V142.802V142.748V142.694V142.639V142.585V142.531V142.476V142.422V142.368V142.313V142.259V142.205V142.15V142.096V142.041V141.987V141.933V141.878V141.824V141.77V141.715V141.661V141.606V141.552V141.498V141.443V141.389V141.334V141.28V141.225V141.171V141.117V141.062V141.008V140.953V140.899V140.844V140.79V140.735V140.681V140.626V140.572V140.518V140.463V140.409V140.354V140.3V140.245V140.191V140.136V140.082V140.027V139.973V139.918V139.864V139.809V139.755V139.7V139.645V139.591V139.536V139.482V139.427V139.373V139.318V139.264V139.209V139.155V139.1V139.045V138.991V138.936V138.882V138.827V138.773V138.718V138.663V138.609V138.554V138.5V138.445V138.391V138.336V138.281V138.227V138.172V138.117V138.063V138.008V137.954V137.899V137.844V137.79V137.735V137.68V137.626V137.571V137.517V137.462V137.407V137.353V137.298V137.243V137.189V137.134V137.079V137.025V136.97V136.915V136.861V136.806V136.751V136.697V136.642V136.587V136.533V136.478V136.423V136.369V136.314V136.259V136.204V136.15V136.095V136.04V135.986V135.931V135.876V135.821V135.767V135.712V135.657V135.603V135.548V135.493V135.438V135.384V135.329V135.274V135.219V135.165V135.11V135.055V135V134.946V134.891V134.836V134.781V134.727V134.672V134.617V134.562V134.508V134.453V134.398V134.343V134.289V134.234V134.179V134.124V134.069V134.015V133.96V133.905V133.85V133.796V133.741V133.686V133.631V133.576V133.522V133.467V133.412V133.357V133.302V133.248V133.193V133.138V133.083V133.028V132.974V132.919V132.864V132.809V132.754V132.699V132.645V132.59V132.535V132.48V132.425V132.37V132.316V132.261V132.206V132.151V132.096V132.041V131.987V131.932V131.877V131.822V131.767V131.735ZM268.5 145.213V145.189V145.134V145.08V145.026V144.972V144.918V144.864V144.809V144.755V144.701V144.647V144.593V144.539V144.484V144.43V144.376V144.322V144.268V144.213V144.159V144.105V144.051V143.996V143.942V143.888V143.834V143.78V143.725V143.671V143.617V143.562V143.508V143.454V143.4V143.345V143.291V143.237V143.183V143.128V143.074V143.02V142.965V142.911V142.857V142.802V142.748V142.694V142.639V142.585V142.531V142.476V142.422V142.368V142.313V142.259V142.205V142.15V142.096V142.041V141.987V141.933V141.878V141.824V141.77V141.715V141.661V141.606V141.552V141.498V141.443V141.389V141.334V141.28V141.225V141.171V141.117V141.062V141.008V140.953V140.899V140.844V140.79V140.735V140.681V140.626V140.572V140.518V140.463V140.409V140.354V140.3V140.245V140.191V140.136V140.082V140.027V139.973V139.918V139.864V139.809V139.755V139.7V139.645V139.591V139.536V139.482V139.427V139.373V139.318V139.264V139.209V139.155V139.1V139.045V138.991V138.936V138.882V138.827V138.773V138.718V138.663V138.609V138.554V138.5V138.445V138.391V138.336V138.281V138.227V138.172V138.117V138.063V138.008V137.954V137.899V137.844V137.79V137.735V137.68V137.626V137.571V137.517V137.462V137.407V137.353V137.298V137.243V137.189V137.134V137.079V137.025V136.97V136.915V136.861V136.806V136.751V136.697V136.642V136.587V136.533V136.478V136.423V136.369V136.314V136.259V136.204V136.15V136.095V136.04V135.986V135.931V135.876V135.821V135.767V135.712V135.657V135.603V135.548V135.493V135.438V135.384V135.329V135.274V135.219V135.165V135.11V135.055V135V134.946V134.891V134.836V134.781V134.727V134.672V134.617V134.562V134.508V134.453V134.398V134.343V134.289V134.234V134.179V134.124V134.069V134.015V133.96V133.905V133.85V133.796V133.741V133.686V133.631V133.576V133.522V133.467V133.412V133.357V133.302V133.248V133.193V133.138V133.083V133.028V132.974V132.919V132.864V132.809V132.754V132.699V132.645V132.59V132.535V132.48V132.425V132.37V132.316V132.261V132.206V132.151V132.096V132.041V131.987V131.932V131.877V131.822V131.767V131.712V131.658V131.603V131.548V131.493V131.438V131.383V131.329V131.274V131.219V131.164V131.109V131.054V130.999V130.945V130.89V130.835V130.78V130.725V130.67V130.615V130.56V130.506V130.451V130.396V130.341V130.286V130.231V130.191C270.984 130.064 273.485 130 276 130C348.08 130 407.876 182.594 419.105 251.5H405H403.881C392.821 190.921 339.773 145 276 145C273.483 145 270.982 145.072 268.5 145.213ZM405.727 266.5H420.755C420.918 269.313 421 272.147 421 275C421 347.428 367.896 407.454 298.5 418.265V418.251V418.186V418.121V418.056V417.991V417.926V417.861V417.796V417.731V417.666V417.601V417.536V417.471V417.406V417.34V417.275V417.21V417.145V417.08V417.015V416.95V416.885V416.82V416.755V416.69V416.625V416.56V416.495V416.43V416.365V416.3V416.235V416.17V416.105V416.04V415.975V415.91V415.845V415.78V415.715V415.65V415.585V415.52V415.454V415.389V415.324V415.259V415.194V415.129V415.064V414.999V414.934V414.869V414.804V414.739V414.674V414.609V414.544V414.479V414.414V414.349V414.284V414.219V414.154V414.089V414.024V413.959V413.894V413.829V413.764V413.699V413.634V413.568V413.503V413.438V413.373V413.308V413.243V413.178V413.113V413.048V412.983V412.918V412.853V412.788V412.723V412.658V412.593V412.528V412.463V412.398V412.333V412.268V412.203V412.138V412.073V412.008V411.943V411.878V411.813V411.747V411.682V411.617V411.552V411.487V411.422V411.357V411.292V411.227V411.162V411.097V411.032V410.967V410.902V410.837V410.772V410.707V410.642V410.577V410.512V410.447V410.382V410.317V410.252V410.187V410.122V410.057V409.992V409.927V409.862V409.796V409.731V409.666V409.601V409.536V409.471V409.406V409.341V409.276V409.211V409.146V409.081V409.016V408.951V408.886V408.821V408.756V408.691V408.626V408.561V408.496V408.431V408.366V408.301V408.236V408.171V408.106V408.041V407.976V407.91V407.845V407.78V407.715V407.65V407.585V407.52V407.455V407.39V407.325V407.26V407.195V407.13V407.065V407V403.06C359.573 392.404 406 339.124 406 275C406 272.144 405.908 269.31 405.727 266.5ZM283.5 404.787C281.018 404.928 278.517 405 276 405C211.527 405 158.016 358.066 147.77 296.5H147.763H147.752H147.707H147.684H147.662H147.617H147.604H147.572H147.526H147.524H147.48H147.445H147.434H147.388H147.365H147.341H147.295H147.286H147.248H147.206H147.201H147.153H147.126H147.106H147.058H147.047H147.01H146.967H146.962H146.913H146.888H146.865H146.816H146.808H146.767H146.728H146.718H146.669H146.649H146.619H146.569H146.569H146.519H146.49H146.469H146.419H146.41H146.368H146.33H146.318H146.267H146.251H146.216H146.171H146.165H146.113H146.092H146.062H146.012H146.01H145.958H145.932H145.906H145.854H145.853H145.802H145.773H145.749H145.696H145.694H145.643H145.614H145.59H145.537H145.534H145.484H145.455H145.43H145.377H145.375H145.323H145.296H145.269H145.216H145.215H145.161H145.136H145.106H145.057H145.052H144.997H144.977H144.942H144.898H144.887H144.832H144.818H144.777H144.738H144.722H144.666H144.659H144.611H144.579H144.555H144.5H144.499H144.443H144.42H144.387H144.341H144.331H144.274H144.261H144.218H144.181H144.161H144.105H144.102H144.048H144.022H143.991H143.943H143.934H143.877H143.863H143.82H143.783H143.762H143.705H143.704H143.647H143.624H143.59H143.545H143.532H143.474H143.465H143.416H143.385H143.358H143.306H143.3H143.242H143.226H143.184H143.147H143.125H143.067H143.008H142.987H142.95H142.908H142.891H142.832H142.828H142.774H142.749H142.715H142.669H142.656H142.597H142.589H142.537H142.51H142.478H142.43H142.419H142.36H142.351H142.3H142.271H142.241H142.191H142.181H142.122H142.112H142.062H142.032H142.003H141.953H141.943H141.883H141.873H141.823H141.793H141.763H141.714H141.704H141.644H141.634H141.584H141.555H141.524H141.475H141.463H141.403H141.395H141.343H141.316H141.283H141.236H141.223H141.163H141.157H141.102H141.077H141.042H140.997H140.982H140.921H140.918H140.861H140.838H140.801H140.759H140.74H140.68H140.679H140.619H140.6H140.559H140.52H140.498H140.44H140.438H140.377H140.361H140.317H140.281H140.256H140.202H140.196H140.135H140.122H140.075H140.042H140.014H139.963H139.954H139.893H139.883H139.833H139.804H139.772H139.724H139.712H139.652H139.644H139.591H139.565H139.531H139.485H139.47H139.41H139.406H139.349H139.326H139.289H139.246H139.229H139.168H139.167H139.108H139.087H139.048H139.008H138.988H138.928H138.927H138.867H138.848H138.807H138.769H138.747H138.689H138.687H138.627H138.61H138.567H138.53H138.507H138.45H138.447H138.387H138.371H138.328H138.291H138.268H138.212H138.208H138.148H138.132H138.089H138.052H138.029H137.973H137.97H137.91H137.893H137.851H137.814H137.792H137.734H137.733H137.673H137.654H137.614H137.575H137.555H137.496H137.495H137.437H137.416H137.379H137.336H137.32H137.261H137.256H137.203H137.177H137.144H137.097H137.086H137.027H137.018H136.969H136.938H136.911H136.859H136.853H136.795H136.779H136.737H136.699H136.679H136.622H136.62H136.564H136.54H136.507H136.461H136.449H136.392H136.381H136.335H136.301H136.278H136.222H136.221H136.164H136.142H136.107H136.063H136.05H135.994H135.983H135.937H135.903H135.881H135.825H135.824H135.769H135.744H135.713H135.665H135.657H135.601H135.585H135.546H135.505H135.49H135.435H135.426H135.38H135.346H135.325H135.27H135.267H135.215H135.187H135.161H135.107H135.106H135.052H135.028H134.998H134.948H134.944H134.89H134.869H134.836H134.789H134.782H134.729H134.709H134.676H134.63H134.622H134.569H134.55H134.517H134.471H134.464H134.412H134.391H134.359H134.311H134.307H134.255H134.232H134.203H134.152H134.152H134.1H134.073H134.049H133.998H133.993H133.947H133.913H133.896H133.845H133.834H133.795H133.754H133.745H133.695H133.675H133.645H133.595H133.595H133.545H133.515H133.496H133.447H133.436H133.398H133.356H133.35H133.301H133.277H133.253H133.205H133.197H133.157H133.118H133.109H133.062H133.038H133.014H132.967H132.958H132.92H132.879H132.874H132.827H132.799H132.781H132.735H132.72H132.689H132.644H132.64H132.598H132.583C142.971 366.385 203.224 420 276 420C278.515 420 281.016 419.936 283.5 419.809V419.747V419.682V419.617V419.552V419.487V419.422V419.357V419.292V419.226V419.161V419.096V419.031V418.966V418.901V418.836V418.771V418.706V418.641V418.576V418.511V418.446V418.381V418.316V418.251V418.186V418.121V418.056V417.991V417.926V417.861V417.796V417.731V417.666V417.601V417.536V417.471V417.406V417.34V417.275V417.21V417.145V417.08V417.015V416.95V416.885V416.82V416.755V416.69V416.625V416.56V416.495V416.43V416.365V416.3V416.235V416.17V416.105V416.04V415.975V415.91V415.845V415.78V415.715V415.65V415.585V415.52V415.454V415.389V415.324V415.259V415.194V415.129V415.064V414.999V414.934V414.869V414.804V414.739V414.674V414.609V414.544V414.479V414.414V414.349V414.284V414.219V414.154V414.089V414.024V413.959V413.894V413.829V413.764V413.699V413.634V413.568V413.503V413.438V413.373V413.308V413.243V413.178V413.113V413.048V412.983V412.918V412.853V412.788V412.723V412.658V412.593V412.528V412.463V412.398V412.333V412.268V412.203V412.138V412.073V412.008V411.943V411.878V411.813V411.747V411.682V411.617V411.552V411.487V411.422V411.357V411.292V411.227V411.162V411.097V411.032V410.967V410.902V410.837V410.772V410.707V410.642V410.577V410.512V410.447V410.382V410.317V410.252V410.187V410.122V410.057V409.992V409.927V409.862V409.796V409.731V409.666V409.601V409.536V409.471V409.406V409.341V409.276V409.211V409.146V409.081V409.016V408.951V408.886V408.821V408.756V408.691V408.626V408.561V408.496V408.431V408.366V408.301V408.236V408.171V408.106V408.041V407.976V407.91V407.845V407.78V407.715V407.65V407.585V407.52V407.455V407.39V407.325V407.26V407.195V407.13V407.065V407V404.787Z" fill="#299CDD"/>
<path d="M414 274C434 274 454 274 474 274" stroke="#299CDD" stroke-width="15" stroke-linecap="round" stroke-linejoin="round"/>
<path d="M77 274C97 274 117 274 137 274" stroke="#299CDD" stroke-width="15" stroke-linecap="round" stroke-linejoin="round"/>
<path d="M276 77C276 97 276 117 276 137" stroke="#299CDD" stroke-width="15" stroke-linecap="round" stroke-linejoin="round"/>
<path d="M276 414C276 434 276 454 276 474" stroke="#299CDD" stroke-width="15" stroke-linecap="round" stroke-linejoin="round"/>
<circle cx="276" cy="474" r="15" fill="#299CDD"/>
<circle cx="474" cy="274" r="15" fill="#299CDD"/>
<circle cx="77" cy="274" r="15" fill="#299CDD"/>
<circle cx="276" cy="77" r="15" fill="#299CDD"/>
</svg>
